<svg width="354" height="228" xmlns="http://www.w3.org/2000/svg">
 <!-- Created with Method Draw - http://github.com/duopixel/Method-Draw/ -->

 <g>
  <title>background</title>
  <rect x="-1" y="-1" width="356" height="230" id="canvas_background" fill="none"/>
  <g id="canvasGrid" display="none">
   <rect id="svg_3" width="100%" height="100%" x="0" y="0" stroke-width="0" fill="url(#gridpattern)"/>
  </g>
 </g>
 <g>
  <title>Layer 1</title>
  <text stroke="#000000" fill="#000000" stroke-width="0" x="21.500617" y="58.500447" id="svg_1" font-size="43" font-family="Georgia, Times, 'Times New Roman', serif" text-anchor="start" xml:space="preserve" font-weight="bold" font-style="normal">Ridolfi</text>
  <text fill="#000000" stroke-width="0" x="97.500596" y="206.50049" id="svg_2" font-size="43" font-family="Georgia, Times, 'Times New Roman', serif" text-anchor="start" xml:space="preserve" font-weight="bold">Residence</text>
  <path fill="#007f3f" stroke-width="1.5" d="m177.41403,64.01346c-0.69005,0 -1.04473,-0.65468 -1.04473,-1.43977c0,-0.65454 0.17731,-1.29002 0.69004,-1.29002c0.35469,0 0.88862,0.63548 1.06593,1.29002c0.35468,0.95299 0,1.43977 -0.71124,1.43977zm117.95613,37.35568c1.57871,0 1.93334,0.16791 1.04472,1.28987c-0.51273,0.78508 -1.57865,1.43962 -2.09139,1.43962c-0.53387,0 -1.06592,-0.65454 -1.06592,-1.43962c0,-0.80435 0.71129,-1.28987 2.11259,-1.28987zm-110.21896,-45.69441c-1.57865,-0.31766 -1.75602,-1.92625 0,-2.41192c0.88856,-0.14956 1.40135,0.31761 1.40135,1.29001c0,0.80425 -0.51279,1.27162 -1.40135,1.12191zm-19.67833,50.81672c2.11259,-0.46743 2.11259,-0.80338 1.40134,-1.90705c-0.53205,-0.80338 -0.70936,-1.77568 -0.35468,-2.0934c0.17732,-0.48653 1.06593,0 1.57866,0.95309c0.71124,1.29002 1.24324,1.45894 2.64459,0.65454c0.86934,-0.48562 1.57865,-0.80414 1.57865,-0.31761c0,0.31761 0.53393,0 1.22398,-0.65454c1.06598,-0.95309 1.2433,-3.04735 0.17737,-4.16936c-0.86742,-0.9531 -5.26991,-0.63538 -6.49388,0.48561c-0.70937,0.8044 -1.2433,0.6364 -1.93335,-0.80323c-1.06592,-2.39373 -1.06592,-2.72979 1.4013,-2.87935c2.11258,0 2.11258,0 0.35468,-0.9723c-0.88668,-0.46742 -1.75598,-1.43962 -1.75598,-2.0751c0,-1.60849 2.44796,-2.56159 3.51388,-1.43958c0.35469,0.46733 1.04479,0.9531 1.75603,0.9531c1.40135,0 8.09181,-5.44023 8.09181,-6.56224c0,-0.48648 0.69198,-0.80409 1.40134,-0.48648c0.8693,0.16887 2.44801,-0.31761 4.04787,-1.12201c2.2687,-1.28991 2.2687,-1.43962 1.04472,-3.53302c-0.86741,-1.43963 -1.93334,-1.92626 -4.40061,-1.92626c-2.80263,0 -3.51388,0.31777 -4.38129,2.24402c-0.35662,1.28987 -1.42249,2.24301 -2.11259,2.24301c-1.22398,0 -1.57866,-1.43876 -0.35468,-2.24301c0.53199,-0.31776 0.88668,-1.43962 0.88668,-2.56163c0,-1.75744 -0.35469,-2.07511 -2.64459,-1.60763c-2.2899,0.31761 -2.2899,0.1679 -1.75603,-2.24413c0.35469,-1.43957 0.86742,-2.72948 1.22403,-2.87919c0.35469,-0.16791 0.70931,-1.60763 0.70931,-3.04726c0,-2.8795 1.04667,-3.36512 2.98194,-1.29001c0.88663,1.12196 1.42061,1.29001 1.75597,0.31761c0.35469,-0.63538 1.59793,-0.78509 3.5332,-0.46747c2.62532,0.63548 2.80264,0.46747 2.44795,-1.43963c-0.17731,-1.12186 -0.35656,-2.41187 -0.53387,-2.72949c0,-0.48577 -0.86742,-1.12201 -1.91408,-1.60778c-2.11259,-0.80409 -2.64458,-2.72949 -0.71124,-2.72949c0.53393,0 1.04661,-0.31776 1.04661,-0.9541c0,-0.48577 1.06598,-0.80339 2.46727,-0.65464c1.93527,0.16887 2.98,-0.46722 5.62459,-3.83219c1.93527,-2.41203 3.33656,-3.70194 3.51393,-3.04741c0.17731,0.80339 1.06593,1.27071 1.93522,1.27071c1.40134,0 1.57871,-0.46732 1.06598,-2.56072c-0.17925,-1.43973 -1.06598,-3.19696 -1.59986,-4.00136c-1.57871,-1.7764 -1.57871,-3.8515 0,-3.21627c1.24325,0.63639 5.11181,-1.121 5.11181,-2.24296c0,-0.48653 0.51466,-0.80425 1.22397,-0.80425c0.7113,0 1.04666,0.97225 1.04666,2.24397c0,1.60763 0.35469,2.24311 1.2433,1.77564c0.69005,-0.33601 1.22403,-1.29002 1.22403,-1.92535c0,-1.92635 5.62454,-5.29137 7.02583,-4.33742c0.53398,0.31787 1.06592,0 1.24528,-1.12186c0.51268,-2.24397 3.68926,-4.00136 5.09055,-2.87934c0.7113,0.46732 1.4014,0.31776 1.58064,-0.16791c0.35463,-0.63634 1.75598,-1.12201 3.33464,-1.27182c1.57866,-0.1679 3.69124,-0.80425 4.57986,-1.45878c3.33463,-2.07511 6.67125,-1.9254 8.07254,0.31873c0.88861,1.60752 1.24324,1.60752 1.24324,0.48551c0,-1.43972 0.69203,-1.60763 4.91528,-1.12186c6.69051,0.63635 7.73718,0.63635 10.20445,-0.16805c1.57866,-0.46743 2.11253,-0.31772 2.11253,0.97215c0,0.8044 0.51279,1.43977 1.22403,1.43977c0.532,0 1.04473,-0.46747 1.04473,-0.954c0,-1.28987 2.82389,-1.92535 5.29111,-1.28987c1.91407,0.63635 2.09139,0.8041 1.57865,5.12317c-0.17731,2.57993 0,4.33732 0.33542,4.33732c0.35463,0 0.71125,-1.12201 0.71125,-2.72964c0,-2.71134 1.93334,-3.83244 2.64458,-1.60768c0.17737,0.80344 0.69005,0.48567 1.04473,-0.78503c0.88867,-3.36599 2.82389,-1.60865 2.2899,2.0751c-0.53194,3.04725 -0.53194,3.04725 1.04672,1.92524c0.88856,-0.48567 1.5786,-1.75723 1.5786,-2.56072c0,-0.8043 0.53399,-1.75825 1.24335,-2.09431c1.40124,-0.63523 2.98189,1.77578 2.46722,3.53388c-0.17731,0.80354 -0.17731,1.43973 0.33537,1.43973c0.35661,0 0.71129,-0.46732 0.71129,-0.80425c0,-0.46742 0.8693,-0.63548 1.93522,-0.31761c2.28803,0.48567 2.62339,1.77553 0.6901,2.56062c-0.51273,0.33692 -1.04666,1.12201 -1.04666,1.77665c0,1.12201 0.35656,1.12201 2.28991,0c3.15731,-1.92534 4.5586,-1.77665 5.09259,0.31761c0.35463,1.12201 1.0466,1.60854 1.75597,1.12201c0.71125,-0.168 2.2899,0.48653 3.51393,1.60763c1.06593,0.95396 2.64459,1.75739 3.35583,1.75739c1.04667,0 1.04667,0.80435 0.69005,3.04822c-0.35463,2.41203 -0.35463,2.72964 0.7113,1.75749c1.40129,-1.58949 1.93334,-1.43988 2.448,0.80323c0.17732,1.12201 1.42056,1.92626 2.8219,2.41193c1.57866,0.31873 2.44801,1.12196 2.44801,2.07596c0,0.97225 0.53194,2.0934 1.06593,2.72974c1.40134,1.12186 1.04473,4.48688 -0.53399,5.60884c-0.53194,0.33606 -1.22392,0.16806 -1.40129,-0.31761c-0.35463,-0.48663 -1.57866,-0.48663 -3.86861,0c-3.69125,1.121 -4.3813,1.43962 -3.51388,2.89754c0.53393,0.9531 6.67313,0.63548 10.02708,-0.48653c1.04666,-0.48572 1.40134,0 1.40134,2.24402c0,1.60753 -0.35468,2.87935 -0.88668,2.87935c-0.35661,0 -0.69197,0.48562 -0.69197,1.28987c0,1.92615 0.86934,1.75723 3.15925,-0.48577c1.22204,-1.28987 1.93328,-1.60849 2.80263,-0.8041c0.88668,0.8041 1.06593,0.8041 1.06593,-0.48577c0,-0.78605 -0.35662,-1.43962 -0.88856,-1.43962c-0.33542,0 -0.69203,-0.63634 -0.69203,-1.27182c0,-0.80415 0.51466,-1.43963 1.22397,-1.43963c0.53393,0 1.2433,0.31762 1.2433,0.78509c0,0.48673 0.69198,1.12196 1.58059,1.29002c1.2221,0.48663 1.57866,1.12201 1.40129,3.04735c-0.35656,3.6835 0.35474,4.80561 2.98,4.17023c1.2433,-0.31873 1.93329,0 1.40135,0.63538c-0.15805,0.31761 0,1.12201 0.35468,1.45782c1.42249,0.95405 0.88856,3.19721 -0.6901,3.19721c-1.93522,0 -2.46727,0.8041 -1.42056,2.24387c0.70932,0.80425 1.24325,0.9531 1.93329,0.31772c1.59986,-1.60763 1.93528,-0.31772 2.11259,6.09562c0,3.21516 0.35468,5.77689 0.70937,5.77689c0.86929,0 0.53393,3.53389 -0.70937,4.97351c-0.69198,0.80339 -0.69198,1.58842 -0.17731,2.24296c1.24324,1.43978 0,5.60914 -1.58065,5.60914c-1.40124,0 -4.04588,3.04725 -4.04588,4.48698c0,1.75835 -2.2687,0 -2.80263,-1.92539c-0.532,-1.75734 -0.532,-1.75734 -0.88861,-0.48654c-0.33537,1.45884 1.58059,5.94582 3.17857,7.21738c1.0466,0.97241 -0.88862,2.57993 -2.28996,1.9254c-0.7113,-0.31761 -1.04666,-1.27071 -1.04666,-2.24301c0,-2.72949 -4.40062,-9.6103 -7.73718,-12.19013c-1.77524,-1.27182 -3.35395,-2.71144 -3.35395,-3.19706c0,-0.9723 -5.62647,-4.00136 -8.78379,-4.97361c-1.75796,-0.48653 -2.28995,-0.31767 -2.28995,0.97225c0,0.95309 -0.33537,1.2707 -1.04667,0.95309c-1.57865,-0.63548 -2.2899,0.8044 -0.88856,2.24402c1.93523,1.75734 1.59986,3.8515 -0.51273,3.04726c-1.42061,-0.48567 -1.59798,-0.31777 -1.06592,2.41197c0.17731,1.58934 0.53393,3.6835 0.53393,4.63659c0,0.9723 0.35463,1.60778 0.70931,1.60778c0.51472,0 0.69198,-0.31777 0.33541,-0.80338c-0.17731,-0.48664 0.17931,-0.95401 0.88856,-0.95401c0.53399,0 1.04667,0.63624 1.04667,1.27162c0,0.65464 -0.69193,1.28986 -1.93523,1.12211c-1.04472,0 -1.93334,-0.46747 -1.93334,-0.78519c0,-1.45893 -4.73791,-11.38684 -6.1392,-12.84476c-1.57871,-1.58949 -0.53205,-2.07511 -13.00713,5.45923c-1.93329,1.12201 -4.04588,3.53388 -5.11181,5.29137c-0.86934,1.75724 -2.27064,3.53389 -2.98,3.8515c-0.71125,0.31777 -3.33657,2.87935 -5.62652,5.60899c-9.84977,12.02121 -8.24991,13.46094 -7.55981,38.01032c2.98188,18.6025 2.98188,18.6025 2.98188,18.6025c-7.02781,0 -7.02781,0 -7.02781,0c-5.80191,0 -5.80191,0 -5.80191,0c0.532,-17.16384 0.532,-17.16384 0.532,-17.16384c0.35463,-1.43866 0.53393,-4.33717 0.7113,-5.94495c0.17731,-0.95396 -4.93454,-5.12332 -4.75718,-6.07632c0,-0.80424 5.28918,1.43978 5.28918,0.63538c0.86929,-11.7036 0,-21.01453 -2.28996,-25.96979c-0.532,-3.04741 -4.93449,-12.8438 -5.62454,-12.8438c-0.17736,0 -1.42061,-0.95396 -2.64458,-2.07597c-2.11265,-2.0933 -2.98001,-2.24311 -14.76505,-2.87935c-12.6524,-0.65367 -12.6524,-0.65367 -12.6524,-0.65367c-2.99927,2.24311 -2.99927,2.24311 -2.99927,2.24311c-1.75597,1.45878 -3.51388,2.41192 -4.02666,2.41192c-1.06593,0 -5.46842,3.36583 -7.3825,5.29107c-0.17731,0 -0.35463,-0.16775 -0.35463,-0.31761c-0.17736,0 -0.17736,0 -0.17736,-0.16801c-0.17732,-0.46732 -0.35657,-0.95395 -0.71125,-1.43962c1.06593,-0.80424 1.93522,-1.29078 2.2899,-1.12186c0.532,0.31762 1.04667,0 1.04667,-0.8044c0,-0.80338 -1.04667,-1.12196 -3.8493,-0.80338c-3.35588,0.48577 -4.22518,0.65367 -4.75718,2.56077c-0.86934,0.97225 -1.04666,2.41198 -0.53199,3.53399c-0.1793,1.43963 -0.1793,2.41188 0,2.41188c0.17731,0 0.35463,-0.31762 0.88668,-0.65454c0,0.16806 0.17731,0.33692 0.35656,0.48653c-1.75791,0.48567 -2.64652,1.9254 -2.46727,3.36502c-0.88856,0.65454 -1.75791,0.97225 -2.82378,1.45792c0,0 0,-0.1679 -0.1581,-0.1679c0.69197,-1.43963 1.04666,-3.04741 1.22397,-5.45928c0.35662,-2.71145 0.17732,-4.48698 -0.35463,-4.48698c-0.35468,0 -0.71124,0.65453 -0.71124,1.60747c0.17726,0.8044 -0.1581,1.60778 -0.86747,1.75749c-0.53393,0.16791 -0.88856,-0.14971 -0.88856,-0.95309c0,-1.92626 -0.6901,-1.92626 -2.27069,-0.16887c-0.70931,0.65454 -2.11066,1.43973 -3.33463,1.77665c-1.59986,0.46733 -2.11259,0.14956 -2.82384,-1.60778c-0.53199,-1.43962 -0.88668,-3.04822 -0.53199,-3.68359c0.17731,-0.80425 0.17731,-1.45792 -0.51273,-1.45792c-1.93528,0 -0.53393,-2.56174 1.75597,-3.04827zm15.11967,-36.86915c-1.06593,-0.1679 -1.93527,-0.63538 -2.2899,-1.28991c-0.17737,-0.95396 -0.35468,-0.95396 -0.35468,0c0,0.65453 -0.71125,1.12201 -1.40135,1.28991c-1.24324,0 -1.24324,0.16801 0.17737,0.8044c0.86736,0.31761 1.75597,0.80323 1.93329,0.80323c0.15805,0 1.04666,-0.48562 1.93527,-0.80323c1.57866,-0.8044 1.57866,-0.8044 0,-0.8044zm139.39044,25.82009c0.33542,0.31776 0.6901,-0.16887 0.6901,-0.97225c0,-0.63624 -0.35468,-1.27172 -0.6901,-1.27172c-0.53388,0 -0.88856,0.31771 -0.88856,0.78508c0,0.48664 0.35468,1.14117 0.88856,1.45889zm-1.24324,1.43972c-0.17732,-0.48663 -1.04666,-1.12196 -1.75791,-1.12196c-0.51273,0 -0.86741,0.63533 -0.51273,1.12196c0.15805,0.48567 0.86929,0.80344 1.57866,0.80344c0.69198,0 0.86929,-0.31777 0.69198,-0.80344zm-1.57866,7.21652c0.532,0 1.24324,-0.1679 1.24324,-0.31761c0,-0.33693 -0.71124,-0.65454 -1.24324,-0.9723c-0.69198,-0.31772 -1.22403,-0.14971 -1.22403,0.31776c0,0.48653 0.53205,0.97215 1.22403,0.97215zm1.40134,-15.23738c0.70932,-0.31787 1.06588,-0.80435 0.88668,-1.27182c-0.53205,-1.14016 -3.51205,-1.14016 -3.51205,0c0,1.27182 1.04478,1.75749 2.62537,1.27182zm-9.65313,-12.02233c-0.88861,0.48663 -1.42061,1.43973 -1.24335,1.92626c0.88861,1.27086 1.93533,0.95309 2.82196,-1.12201c0.86934,-1.92626 0.51466,-2.24387 -1.57861,-0.80425zm-3.35588,24.69813c4.5798,4.31892 4.75717,4.48697 4.75717,3.04735c0,-0.80338 -0.35468,-1.45792 -0.88861,-1.45792c-0.51268,0 -1.40129,-0.8044 -1.93329,-1.75734c-0.51278,-0.95411 -1.57866,-1.92641 -2.448,-1.92641c-1.59793,0 -1.59793,0.16892 0.51273,2.09432zm-3.68937,-7.55355c1.06405,0 1.57871,-0.31761 0.88673,-0.46737c-0.532,-0.31771 -1.40134,-0.31771 -1.93334,0c-0.53398,0.14976 0,0.46737 1.04661,0.46737zm-5.09254,-21.79961c0.532,0.48577 2.11066,1.12115 3.51195,1.43977c2.46732,0.48562 2.64464,0.48562 1.24329,-0.80424c-1.59792,-1.58949 -5.97922,-2.07511 -4.75524,-0.63553zm-10.71911,-26.60502c-0.532,0.46732 -0.70932,1.43962 -0.532,2.07495c0.35468,1.29001 1.40134,0.16805 1.40134,-1.75734c0,-0.9723 -0.17737,-1.12201 -0.86934,-0.31761zm5.2699,34.62603c1.40135,0.80329 1.93528,0.80329 2.64657,-0.31862c1.4013,-1.75744 0.51268,-2.56073 -2.11264,-1.43958c-2.11259,0.78595 -2.11259,0.78595 -0.53393,1.7582zm-3.51194,-8.02101c2.64458,-1.75719 2.64458,-1.75719 0.53199,-1.75719c-1.42061,0 -2.46727,0.63523 -2.99927,1.75719c-0.33541,1.12115 -0.69197,1.75749 -0.51466,1.75749c0,0 1.40134,-0.95406 2.98194,-1.75749zm-3.86862,25.98814c1.22204,1.75749 3.33469,1.75749 2.64459,-0.16801c-0.17732,-0.63624 -0.35657,-1.43962 -0.35657,-1.60854c0,-0.14971 -0.70936,-0.14971 -1.57865,0.16892c-1.42061,0.31771 -1.42061,0.80338 -0.70937,1.60763zm-5.44915,-6.58124c1.40129,1.75744 2.11259,1.92534 3.69124,0.63548c1.04667,-0.80339 1.04667,-0.80339 0,-0.9531c-0.53199,0 -1.93334,-0.16891 -3.15731,-0.48663c-1.75791,-0.63538 -1.75791,-0.63538 -0.53393,0.80425zm-0.17732,-17.48151c0.88856,0 1.93522,-2.56158 1.40135,-3.36497c-0.6901,-0.80424 -2.11071,0.48562 -2.11071,1.92535c0,0.80429 0.35468,1.43962 0.70936,1.43962zm-8.60459,10.90022c-1.06593,0.65453 -0.88856,0.80439 0.51278,0.80439c0.88856,0 1.93329,-0.31873 2.28991,-0.80439c0.53194,-1.27157 -1.22403,-1.27157 -2.80269,0zm0.17737,14.11562c0.15805,0.16892 0.69004,-0.168 1.22397,-0.95309c0.53195,-0.65454 2.11071,-1.45878 3.33464,-1.77655c1.57866,-0.48577 2.28995,-1.27081 2.28995,-2.41198c0,-2.71033 -2.46727,-1.9071 -5.09264,1.6086c-1.06588,1.77568 -1.93329,3.21541 -1.75592,3.53302zm-1.93522,-7.38462c1.5786,-1.75724 1.5786,-2.07597 0.33531,-2.56164c-1.40129,-0.63548 -2.44602,0.8044 -2.44602,3.36502c-0.17925,1.92626 -0.17925,1.92626 2.11071,-0.80338zm-2.82196,-18.92108c0.17732,1.28986 0.532,1.12196 1.57861,-1.27172c1.24335,-2.56078 1.24335,-2.8977 0.17737,-2.8977c-0.69005,0 -1.40135,0.48577 -1.57866,1.29007c-0.35469,0.63533 -0.35469,2.09426 -0.17732,2.87935zm-0.86934,-13.14338c0,0.65368 0.33536,2.24311 0.69197,3.36502c0.532,2.24397 0.532,2.24397 1.06593,0.31772c0.69005,-1.92525 0,-4.8046 -1.06593,-4.8046c-0.51466,0 -0.69197,0.48552 -0.69197,1.12186zm-12.31511,5.29037c-0.86929,1.12201 -0.86929,2.24402 -0.17925,5.60899c0.35662,2.41192 1.24523,4.8239 1.75791,5.29137c0.88861,0.80425 1.06593,0 1.24324,-4.97275c0,-6.07646 -0.88856,-8.00257 -2.8219,-5.92761zm1.57866,16.99583c0.17737,0.31777 0.532,-0.31771 0.35468,-1.27167c0,-0.9723 -0.17731,-1.12201 -0.532,-0.48567c-0.1581,0.63538 -0.1581,1.43963 0.17732,1.75734zm6.33583,-15.06958c-0.17731,0.31777 -0.17731,2.56174 0.35469,4.97275c0.53393,4.17023 0.69197,4.33813 0.86934,1.29078c0.17732,-4.97361 -0.17737,-7.38549 -1.22403,-6.26353zm-5.98115,45.22699c1.06593,-1.92626 2.82196,-5.14167 4.04593,-7.06777c1.40129,-2.07526 2.28991,-4.80475 2.64459,-7.53439c0.51466,-4.31907 0.51466,-4.31907 0.51466,-4.31907c-2.11259,2.39368 -2.11259,2.39368 -2.11259,2.39368c-1.04666,1.29001 -1.75602,2.72964 -1.75602,3.21541c0,1.27162 -3.33657,9.29248 -4.38323,10.73221c-0.532,0.80323 -1.42061,2.57993 -1.57866,3.85149c-0.88861,3.68284 0.69198,3.04736 2.62532,-1.27156zm-12.47508,16.5092c0.53393,3.19696 0.53393,3.19696 2.28995,-3.68365c1.04666,-3.70199 2.62532,-9.62849 3.69125,-13.31219c1.40129,-4.65503 1.93522,-8.50653 1.93522,-13.94746c0,-7.06706 -0.17925,-7.21677 -1.58054,-6.41238c-3.17663,2.07506 -4.93454,7.85195 -5.64391,19.06978c-0.33536,5.77801 -0.69197,11.5549 -1.0466,12.82662c-0.17737,1.28991 0,3.70189 0.35463,5.45928zm0.35661,-41.03942c0.69005,1.58943 1.40134,2.87935 1.40134,2.87935c0.17732,0 1.04468,-0.97231 1.75598,-2.24387c0.88856,-1.1211 2.2899,-2.41102 2.82195,-2.87849c2.09327,-1.45878 2.62527,-5.94576 0.8693,-8.99312c-1.40135,-2.72964 -5.26991,-5.7779 -5.98121,-4.8056c-0.35463,0.31771 -0.86736,3.36598 -1.22397,6.899c-0.70932,5.29123 -0.70932,6.89972 0.35661,9.14273zm-1.06593,-36.7202c0.35469,0.31863 0.70932,0.14971 0.70932,-0.33591c0,-0.63634 -0.35463,-1.27182 -0.70932,-1.58949c-0.53393,-0.33687 -0.86934,-0.168 -0.86934,0.46748c0,0.48567 0.33541,1.12201 0.86934,1.45792zm-56.94549,43.11427c2.44795,0.16887 2.44795,0.16887 2.44795,0.16887c2.46727,0 4.93455,-2.07597 4.93455,-3.8515c0,-1.12201 -0.17732,-1.12201 -7.3825,3.68263zm1.04666,-4.48703c0,0.48679 0.35468,0.97231 0.88861,0.97231c0.86742,0 3.33464,-2.87935 2.80264,-3.36497c-0.53393,-0.65454 -3.69125,1.43957 -3.69125,2.39266zm1.93522,-11.04977c2.64464,3.19783 3.86862,3.51554 5.26991,1.43958c1.42061,-1.92525 0.17737,-3.21526 -4.04781,-3.68274c-3.512,-0.48663 -3.512,-0.48663 -1.2221,2.24316zm-1.93522,-8.9923c0,0.33591 1.24324,1.121 2.64459,1.77553c6.49393,3.04741 7.73718,3.04741 7.55981,0.14986c0,-1.75749 -2.64459,-5.60909 -3.69125,-5.60909c-1.24324,0 -6.51315,3.04736 -6.51315,3.6837zm9.49508,22.77187c1.93335,0 2.11066,-0.48577 0.532,-1.27086c-0.71124,-0.16887 -1.40134,0 -1.57866,0.46747c-0.35661,0.48552 0.17732,0.80339 1.04666,0.80339zm1.40135,-37.67345c-1.22403,-0.80434 -2.80462,-1.12196 -3.51393,-0.80434c-1.22398,0.63634 -1.04666,0.80434 0.70931,1.28986c0.86935,0.31873 2.64657,0.63639 3.51393,0.7861c1.04666,0 1.04666,-0.31862 -0.70931,-1.27162zm-0.15805,5.7769c1.04468,0 1.22398,-0.16801 0.51273,-0.65368c-0.51273,-0.14961 -1.22403,-0.14961 -1.57871,0.16806c-0.17732,0.31761 0.35468,0.63548 1.06598,0.48562zm1.04468,3.68374c-2.46722,0 -2.46722,0.14956 -1.04468,1.43958c1.75597,1.43962 2.26871,1.60753 2.98,0.63538c1.22393,-1.27086 0.35463,-2.07496 -1.93532,-2.07496zm3.51398,-18.11698c-0.7113,-0.80425 -0.88861,0.63548 -0.53205,2.39282c0.17732,1.12201 0.88668,2.09416 1.2433,2.09416c0.69004,0 0.17731,-3.53389 -0.71125,-4.48698zm5.62454,21.16409c-0.35463,0.14986 0.53393,1.12201 1.58059,1.92635c1.06593,0.80339 1.93329,1.12105 1.93329,0.63538c0,-1.12186 -2.97995,-3.21612 -3.51388,-2.56173zm-4.40062,1.12201c-1.57865,1.12211 -0.69004,4.00131 1.59798,4.48708c1.22398,0.31766 3.15925,1.60768 4.38323,2.87925c1.06593,1.29001 1.93329,1.77664 1.93329,1.29001c0,-1.60763 -7.02588,-9.31088 -7.9145,-8.65634zm7.20519,13.31234c-1.04661,-2.58089 -2.27064,-3.85175 -4.5606,-4.656c-1.75597,-0.63538 -3.51388,-0.97215 -4.04588,-0.80328c-0.53393,0.1679 1.57866,2.24301 4.57986,4.65493c5.62454,4.16937 5.62454,4.16937 4.02662,0.80435zm9.3351,-24.69823c-0.35468,0 -0.7113,0.63548 -0.7113,1.27086c0,0.80425 0.35662,1.29002 0.7113,1.29002c0.51273,0 0.86934,-0.48577 0.86934,-1.29002c0,-0.63538 -0.35661,-1.27086 -0.86934,-1.27086zm-1.59793,13.14338c0,1.12186 2.99927,0.31771 4.22325,-1.12201c1.75603,-2.41188 1.57866,-3.04736 -0.71125,-3.04736c-1.57865,0 -3.512,2.24407 -3.512,4.16937zm5.11186,-34.62619c-0.53393,2.0751 -0.88861,3.83244 -0.71124,4.00136c0.53387,0.63548 1.93527,-4.16927 1.93527,-6.09552c0,-0.80339 -0.53398,0.16892 -1.22403,2.09416zm9.13852,32.38217c-0.88861,0 -1.57871,0.31872 -1.57871,0.95395c0,0.48577 0.51273,0.8044 1.04473,0.8044c0.71124,0 1.40134,-0.31863 1.58059,-0.8044c0.35468,-0.63523 -0.17925,-0.95395 -1.04661,-0.95395zm-2.11264,30.13905c1.04666,2.89856 2.62532,5.60899 3.51393,6.26353c0.88862,0.48577 2.64459,2.72974 3.69125,4.97361c1.04666,2.24311 2.11259,4.0005 2.28996,4.0005c0.86736,0 -0.88861,-14.751 -2.11259,-19.23884c-1.06598,-3.85064 -1.4014,-7.38463 -1.22403,-12.99362c0.15805,-4.16926 0,-7.85296 -0.35463,-8.17062c-0.17737,-0.31772 -1.40134,-0.31772 -2.46727,0c-1.93527,0.63538 -2.11259,1.12201 -2.11259,4.65589c0,2.71049 -0.35474,4.16937 -1.22403,4.8046c-2.46722,1.43977 -2.2899,9.61035 0,15.70495zm-5.09254,-21.4818c-0.35468,-2.41192 -0.70931,-2.72964 -2.64458,-2.72964c-2.28996,0 -2.28996,0.16801 -2.11259,3.53303c0,2.07596 0.35656,4.48784 0.53387,5.60894c0.17737,1.12201 0.86935,2.24387 1.57872,2.41192c1.40129,0.80435 2.97995,-4.80459 2.64458,-8.82425zm-2.64458,16.19058c-1.57872,-1.92539 -2.64459,-4.0005 -2.80269,-4.48698c0,-0.63538 -0.88856,-2.24301 -1.93334,-3.68273c-1.06593,-1.43963 -2.28991,-3.21617 -2.82384,-3.85165c-1.75597,-2.24387 -1.40134,-0.31762 0.53393,4.65503c1.22398,3.36583 3.33469,6.41324 5.80191,8.97482c4.56054,4.33727 5.09259,3.53318 1.22403,-1.60849zm-2.80269,7.87115c1.91407,0 1.75603,-0.1679 -0.88856,-2.72948c-1.75603,-1.60778 -2.98,-3.36512 -2.98,-4.16942c0,-0.63533 -2.28996,-2.89764 -4.93449,-4.97275c-2.62538,-2.09411 -5.09265,-4.16921 -5.44728,-4.80545c-0.35661,-0.80339 -0.53393,-0.80339 -0.53393,0.14971c0,0.9723 -0.86741,1.12186 -3.69125,0.63538c-1.93334,-0.31777 -3.512,-0.31777 -3.512,-0.14885c0,0.31771 0.70932,2.24311 1.42061,4.16921c1.22403,3.19712 1.75598,3.85175 5.62459,5.12251c2.44801,0.80425 6.31652,2.72959 8.78379,4.16921c2.28996,1.45894 5.09259,2.57993 6.15852,2.57993zm-27.43666,5.44094c0.71125,0 1.75791,-0.31761 2.46722,-0.80409c1.22403,-1.12115 0.1793,-1.12115 -2.11066,0c-1.04666,0.48648 -1.22397,0.63619 -0.35656,0.80409zm-1.93334,-4.00131c1.75603,-0.65357 7.38249,-1.28992 12.49435,-1.28992c9.65126,-0.14971 11.58648,-0.63522 7.71786,-1.60762c-1.22392,-0.31762 -4.02661,-1.12202 -6.31651,-1.9254c-4.04593,-1.43962 -12.31704,-0.95395 -13.18446,0.65383c-0.17924,0.31847 -1.06592,0.48648 -1.93522,0.31847c-1.75602,-0.48653 -3.51393,0.80349 -4.04593,3.36512c-0.71124,2.07495 0.532,2.24387 5.26991,0.48552zm-14.05375,3.6837c0.35469,1.29001 2.11259,1.43962 3.51394,0.31761c0.86736,-0.63533 0.86736,-0.95294 0,-1.92524c-0.71125,-0.95411 -1.22398,-0.95411 -2.28991,-0.14971c-0.71124,0.46747 -1.22403,1.27086 -1.22403,1.75734zm-5.62459,11.21798c0.6901,0 1.04479,0.48577 0.6901,1.43972c-0.1581,0.65454 -0.6901,1.28992 -1.04666,1.28992c-0.532,0 -0.86741,-0.63538 -0.86741,-1.28992c0,-0.78509 0.51273,-1.43972 1.22397,-1.43972z" id="svg_7"/>
  <ellipse fill="#ffffff" stroke-width="1.5" cx="117.501282" cy="328.495435" id="svg_8"/>
  <ellipse fill="#ffffff" stroke-width="1.5" cx="120.501218" cy="362.994701" id="svg_10" ry="1.499968"/>
 </g>
</svg>